# Blender v2.80 (sub 37) OBJ File: 'Tile.blend'
# www.blender.org
mtllib Tile.mtl
o Cube
v 1.000000 0.021895 -1.000000
v 1.000000 -0.021895 -1.000000
v 1.000000 0.021895 1.000000
v 1.000000 -0.021895 1.000000
v -1.000000 0.021895 -1.000000
v -1.000000 -0.021895 -1.000000
v -1.000000 0.021895 1.000000
v -1.000000 -0.021895 1.000000
vt 0.001190 0.001084
vt 0.999714 0.001084
vt 0.999714 0.996064
vt 0.001190 0.996064
vt 0.312992 -0.526648
vt 0.562992 -0.526648
vt 0.562992 -0.276648
vt 0.312992 -0.276648
vt 0.375000 0.500000
vt 0.625000 0.500000
vt 0.625000 0.750000
vt 0.375000 0.750000
vt 0.625000 0.750000
vt 0.625000 1.000000
vt 0.375000 1.000000
vt 0.062992 -0.276648
vt 0.312992 -0.276648
vt 0.312992 -0.026648
vt 0.062992 -0.026648
vt 0.625000 0.500000
vt 0.875000 0.500000
vt 0.875000 0.750000
vn 0.0000 1.0000 0.0000
vn 0.0000 0.0000 1.0000
vn -1.0000 0.0000 0.0000
vn 0.0000 -1.0000 0.0000
vn 1.0000 0.0000 0.0000
vn 0.0000 0.0000 -1.0000
usemtl Material
s off
f 1/1/1 5/2/1 7/3/1 3/4/1
f 4/5/2 3/6/2 7/7/2 8/8/2
f 8/9/3 7/10/3 5/11/3 6/12/3
f 6/12/4 2/13/4 4/14/4 8/15/4
f 2/16/5 1/17/5 3/18/5 4/19/5
f 6/20/6 5/21/6 1/22/6 2/13/6
